<svg xmlns="http://www.w3.org/2000/svg" viewBox="0 0 54.19 60.13"><defs><style>.cls-1{fill:none;stroke-width:3px;}.cls-1,.cls-2{stroke:#fff;stroke-linecap:round;stroke-linejoin:round;}.cls-2{fill:#fff;}</style></defs><g id="Layer_2" data-name="Layer 2"><g id="Layer_1-2" data-name="Layer 1"><path class="cls-1" d="M36.09,26.61A7.77,7.77,0,0,1,34.38,42H9.27C5,42,1.5,38.91,1.5,34.62a7.77,7.77,0,0,1,6-7.56,6,6,0,0,1-.33-2,6.25,6.25,0,0,1,10.65-4.44h0a9.69,9.69,0,0,1,18.51,4,17.5,17.5,0,0,1-.21,2Z"/><path class="cls-1" d="M38.88,27C46,27,52.69,21.28,52.69,14.21c0-.06,0-.12,0-.18A9.52,9.52,0,1,1,38.37,1.5c-6.36.75-11.3,5.15-11.3,11.71"/><polygon class="cls-2" points="18.27 42.59 12.02 50.41 18.02 50.48 11.08 59.63 31.68 48.23 24.45 48.19 28.28 42.59 18.27 42.59"/></g></g></svg>