<svg xmlns="http://www.w3.org/2000/svg" viewBox="0 0 54.19 59.29"><defs><style>.cls-1{fill:none;stroke:#fff;stroke-linecap:round;stroke-linejoin:round;stroke-width:3px;}.cls-2{fill:#fff;}</style></defs><g id="Layer_2" data-name="Layer 2"><g id="Layer_1-2" data-name="Layer 1"><path class="cls-1" d="M36.09,26.61A7.77,7.77,0,0,1,34.38,42H9.27C5,42,1.5,38.9,1.5,34.62a7.77,7.77,0,0,1,6-7.56,6,6,0,0,1-.33-2,6.25,6.25,0,0,1,10.65-4.44h0a9.69,9.69,0,0,1,18.51,4,17.5,17.5,0,0,1-.21,2Z"/><path class="cls-1" d="M38.88,27C46,27,52.69,21.28,52.69,14.21c0-.06,0-.12,0-.18A9.52,9.52,0,1,1,38.37,1.5c-6.36.75-11.3,5.15-11.3,11.71"/><path class="cls-2" d="M10.84,48.27a9.06,9.06,0,0,1,2.81,5.56,2.82,2.82,0,1,1-5.63,0A9.11,9.11,0,0,1,10.84,48.27Z"/><path class="cls-2" d="M32.59,48.27a9.11,9.11,0,0,1,2.82,5.56,2.82,2.82,0,0,1-5.64,0A9.11,9.11,0,0,1,32.59,48.27Z"/><path class="cls-2" d="M21.71,50.91a9.11,9.11,0,0,1,2.82,5.56,2.82,2.82,0,0,1-5.64,0A9.11,9.11,0,0,1,21.71,50.91Z"/></g></g></svg>